{
  "source": "C:\\Users\\Peter\\Desktop\\stuff\\MIUN\\quantitative_research\\video_compression\\videos\\UVG\\ShakeNDry_1920x1080_120fps_420_8bit_YUV.y4m",
  "output": "C:\\Users\\Peter\\Desktop\\stuff\\MIUN\\quantitative_research\\video_compression\\compressed_videos\\UVG\\av1\\4\\ShakeNDry_1920x1080_120fps_420_8bit_YUV_av1.mkv",
  "codec": "av1",
  "ok": "[yuv4mpegpipe @ 000001a026f15380] Stream #0: not enough frames to estimate rate; consider increasing probesize\nInput #0, yuv4mpegpipe, from 'C:\\Users\\Peter\\Desktop\\stuff\\MIUN\\quantitative_research\\video_compression\\videos\\UVG\\ShakeNDry_1920x1080_120fps_420_8bit_YUV.y4m':\n  Duration: 00:00:02.50, start: 0.000000, bitrate: 2985989 kb/s\n  Stream #0:0: Video: rawvideo (I420 / 0x30323449), yuv420p(progressive), 1920x1080, 120 fps, 120 tbr, 120 tbn\n[out#0/matroska @ 000001a026f190c0] Codec AVOption b:a (set bitrate (in bits/s)) has not been used for any stream. The most likely reason is either wrong type (e.g. a video option with no video streams) or that it is a private option of some decoder which was not actually used for any stream.\nStream mapping:\n  Stream #0:0 -> #0:0 (rawvideo (native) -> av1 (libsvtav1))\nPress [q] to stop, [?] for help\nSvt[info]: -------------------------------------------\nSvt[info]: SVT [version]:\tSVT-AV1 Encoder Lib v3.1.0-19-g6ecfe8ec\nSvt[info]: SVT [build]  :\tGCC 15.2.0\t 64 bit\nSvt[info]: LIB Build date: Aug 17 2025 11:37:13\nSvt[info]: -------------------------------------------\n[libsvtav1 @ 000001a026f1c1c0] Specified chroma sample location center is unsupported on the AV1 bit stream level. Usage of a container that allows passing this information - such as Matroska - is recommended.\nSvt[info]: Level of Parallelism: 5\nSvt[info]: Number of PPCS 93\nSvt[info]: [asm level on system : up to avx2]\nSvt[info]: [asm level selected : up to avx2]\nSvt[info]: -------------------------------------------\nSvt[info]: SVT [config]: main profile\ttier (auto)\tlevel (auto)\nSvt[info]: SVT [config]: width / height / fps numerator / fps denominator \t\t: 1920 / 1080 / 120 / 1\nSvt[info]: SVT [config]: bit-depth / color format \t\t\t\t\t: 8 / YUV420\nSvt[info]: SVT [config]: preset / tune / pred struct \t\t\t\t\t: 4 / PSNR / random access\nSvt[info]: SVT [config]: gop size / mini-gop size / key-frame type \t\t\t: 641 / 16 / key frame\nSvt[info]: SVT [config]: BRC mode / target bitrate (kbps)\t\t\t\t: VBR / 4000 \nSvt[info]: SVT [config]: AQ mode / Variance Boost \t\t\t\t\t: 2 / 0\nSvt[info]: SVT [config]: sharpness / luminance-based QP bias \t\t\t\t: 0 / 0\nSvt[info]: SVT [config]: QP scale compress strength \t\t\t\t\t: 0\nSvt[info]: -------------------------------------------\nOutput #0, matroska, to 'C:\\Users\\Peter\\Desktop\\stuff\\MIUN\\quantitative_research\\video_compression\\compressed_videos\\UVG\\av1\\4\\ShakeNDry_1920x1080_120fps_420_8bit_YUV_av1.mkv':\n  Metadata:\n    encoder         : Lavf62.3.100\n  Stream #0:0: Video: av1 (AV01 / 0x31305641), yuv420p(tv, progressive), 1920x1080, q=2-31, 4000 kb/s, 120 fps, 1k tbn\n    Metadata:\n      encoder         : Lavc62.11.100 libsvtav1\n    Side data:\n      cpb: bitrate max/min/avg: 0/0/4000000 buffer size: 4000000 vbv_delay: N/A\nframe=    0 fps=0.0 q=0.0 size=       0KiB time=N/A bitrate=N/A speed=N/A elapsed=0:00:04.61    \nframe=    0 fps=0.0 q=0.0 size=       0KiB time=N/A bitrate=N/A speed=N/A elapsed=0:00:05.12    \nframe=    0 fps=0.0 q=0.0 size=       0KiB time=N/A bitrate=N/A speed=N/A elapsed=0:00:05.64    \nframe=    0 fps=0.0 q=0.0 size=       0KiB time=N/A bitrate=N/A speed=N/A elapsed=0:00:06.17    \nframe=    0 fps=0.0 q=0.0 size=       0KiB time=N/A bitrate=N/A speed=N/A elapsed=0:00:06.71    \nframe=    0 fps=0.0 q=0.0 size=       0KiB time=N/A bitrate=N/A speed=N/A elapsed=0:00:07.23    \nframe=    0 fps=0.0 q=0.0 size=       0KiB time=N/A bitrate=N/A speed=N/A elapsed=0:00:07.74    \nframe=    0 fps=0.0 q=0.0 size=       0KiB time=N/A bitrate=N/A speed=N/A elapsed=0:00:08.33    \nframe=    0 fps=0.0 q=0.0 size=       0KiB time=N/A bitrate=N/A speed=N/A elapsed=0:00:08.93    \nframe=    0 fps=0.0 q=0.0 size=       0KiB time=N/A bitrate=N/A speed=N/A elapsed=0:00:09.47    \nframe=    0 fps=0.0 q=0.0 size=       0KiB time=N/A bitrate=N/A speed=N/A elapsed=0:00:09.99    \nframe=    0 fps=0.0 q=0.0 size=       0KiB time=N/A bitrate=N/A speed=N/A elapsed=0:00:10.53    \nframe=    0 fps=0.0 q=0.0 size=       0KiB time=N/A bitrate=N/A speed=N/A elapsed=0:00:11.05    \nframe=    0 fps=0.0 q=0.0 size=       0KiB time=N/A bitrate=N/A speed=N/A elapsed=0:00:11.56    \nframe=    0 fps=0.0 q=0.0 size=       0KiB time=N/A bitrate=N/A speed=N/A elapsed=0:00:12.08    \nframe=    0 fps=0.0 q=0.0 size=       0KiB time=N/A bitrate=N/A speed=N/A elapsed=0:00:12.63    \nframe=    0 fps=0.0 q=0.0 size=       0KiB time=N/A bitrate=N/A speed=N/A elapsed=0:00:13.16    \nframe=    0 fps=0.0 q=0.0 size=       0KiB time=N/A bitrate=N/A speed=N/A elapsed=0:00:13.69    \nframe=    0 fps=0.0 q=0.0 size=       0KiB time=N/A bitrate=N/A speed=N/A elapsed=0:00:14.27    \nframe=    0 fps=0.0 q=0.0 size=       0KiB time=N/A bitrate=N/A speed=N/A elapsed=0:00:14.81    \nframe=    0 fps=0.0 q=0.0 size=       0KiB time=N/A bitrate=N/A speed=N/A elapsed=0:00:15.33    \nframe=    0 fps=0.0 q=0.0 size=       0KiB time=N/A bitrate=N/A speed=N/A elapsed=0:00:15.96    \nframe=    0 fps=0.0 q=0.0 size=       0KiB time=N/A bitrate=N/A speed=N/A elapsed=0:00:16.50    \nframe=    0 fps=0.0 q=0.0 size=       0KiB time=N/A bitrate=N/A speed=N/A elapsed=0:00:17.02    \nframe=    0 fps=0.0 q=0.0 size=       0KiB time=N/A bitrate=N/A speed=N/A elapsed=0:00:17.56    \nframe=    0 fps=0.0 q=0.0 size=       0KiB time=N/A bitrate=N/A speed=N/A elapsed=0:00:18.07    \nframe=    0 fps=0.0 q=0.0 size=       0KiB time=N/A bitrate=N/A speed=N/A elapsed=0:00:18.60    \nframe=    1 fps=0.1 q=19.0 size=       1KiB time=00:00:00.00 bitrate=N/A speed=   0x elapsed=0:00:19.11    \nframe=    1 fps=0.1 q=19.0 size=       1KiB time=00:00:00.00 bitrate=N/A speed=   0x elapsed=0:00:19.64    \nframe=    1 fps=0.0 q=19.0 size=       1KiB time=00:00:00.00 bitrate=N/A speed=   0x elapsed=0:00:20.15    \nframe=    1 fps=0.0 q=19.0 size=       1KiB time=00:00:00.00 bitrate=N/A speed=   0x elapsed=0:00:20.67    \nframe=    1 fps=0.0 q=19.0 size=       1KiB time=00:00:00.00 bitrate=N/A speed=   0x elapsed=0:00:21.24    \nframe=    1 fps=0.0 q=19.0 size=       1KiB time=00:00:00.00 bitrate=N/A speed=   0x elapsed=0:00:21.81    \nframe=    1 fps=0.0 q=19.0 size=       1KiB time=00:00:00.00 bitrate=N/A speed=   0x elapsed=0:00:22.33    \nframe=    3 fps=0.1 q=50.0 size=       1KiB time=00:00:00.01 bitrate= 268.8kbits/s speed=0.000728x elapsed=0:00:22.88    \nframe=    4 fps=0.2 q=53.0 size=       1KiB time=00:00:00.02 bitrate= 179.2kbits/s speed=0.00107x elapsed=0:00:23.42    \nframe=    7 fps=0.3 q=48.0 size=       1KiB time=00:00:00.05 bitrate=  89.6kbits/s speed=0.00208x elapsed=0:00:23.99    \nframe=    8 fps=0.3 q=53.0 size=       1KiB time=00:00:00.05 bitrate=  76.8kbits/s speed=0.00238x elapsed=0:00:24.50    \nframe=    9 fps=0.4 q=45.0 size=       1KiB time=00:00:00.06 bitrate=  67.2kbits/s speed=0.00267x elapsed=0:00:25.01    \nframe=   10 fps=0.4 q=53.0 size=       1KiB time=00:00:00.07 bitrate=  59.7kbits/s speed=0.00294x elapsed=0:00:25.54    \nframe=   12 fps=0.5 q=53.0 size=       1KiB time=00:00:00.09 bitrate=  48.9kbits/s speed=0.00351x elapsed=0:00:26.09    \nframe=   13 fps=0.5 q=46.0 size=       1KiB time=00:00:00.10 bitrate=  44.8kbits/s speed=0.00375x elapsed=0:00:26.63    \nframe=   15 fps=0.6 q=48.0 size=       1KiB time=00:00:00.11 bitrate=  38.4kbits/s speed=0.00429x elapsed=0:00:27.17    \nframe=   18 fps=0.7 q=47.0 size=       1KiB time=00:00:00.14 bitrate=  31.6kbits/s speed=0.00512x elapsed=0:00:27.68    \nframe=   20 fps=0.7 q=48.0 size=       1KiB time=00:00:00.15 bitrate=  28.3kbits/s speed=0.00561x elapsed=0:00:28.20    \nframe=   22 fps=0.8 q=49.0 size=       1KiB time=00:00:00.17 bitrate=  25.6kbits/s speed=0.00609x elapsed=0:00:28.72    \nframe=   22 fps=0.8 q=49.0 size=       1KiB time=00:00:00.17 bitrate=  25.6kbits/s speed=0.00599x elapsed=0:00:29.23    \nframe=   23 fps=0.8 q=47.0 size=       1KiB time=00:00:00.18 bitrate=  24.4kbits/s speed=0.00616x elapsed=0:00:29.74    \nframe=   25 fps=0.8 q=44.0 size=       1KiB time=00:00:00.20 bitrate=  22.4kbits/s speed=0.00661x elapsed=0:00:30.26    \nframe=   26 fps=0.8 q=49.0 size=       1KiB time=00:00:00.20 bitrate=  21.5kbits/s speed=0.00677x elapsed=0:00:30.78    \nframe=   27 fps=0.9 q=49.0 size=       1KiB time=00:00:00.21 bitrate=  20.7kbits/s speed=0.00692x elapsed=0:00:31.30    \nframe=   29 fps=0.9 q=46.0 size=       1KiB time=00:00:00.23 bitrate=  19.2kbits/s speed=0.00733x elapsed=0:00:31.82    \nframe=   31 fps=1.0 q=48.0 size=       1KiB time=00:00:00.25 bitrate=  17.9kbits/s speed=0.00773x elapsed=0:00:32.33    \nframe=   32 fps=1.0 q=49.0 size=       1KiB time=00:00:00.25 bitrate=  17.3kbits/s speed=0.00787x elapsed=0:00:32.84    \nframe=   33 fps=1.0 q=34.0 size=       1KiB time=00:00:00.26 bitrate=  16.8kbits/s speed=0.00799x elapsed=0:00:33.35    \nframe=   36 fps=1.1 q=49.0 size=       1KiB time=00:00:00.29 bitrate=  15.4kbits/s speed=0.00861x elapsed=0:00:33.87    \nframe=   38 fps=1.1 q=49.0 size=       1KiB time=00:00:00.30 bitrate=  14.5kbits/s speed=0.00896x elapsed=0:00:34.39    \nframe=   39 fps=1.1 q=49.0 size=       1KiB time=00:00:00.31 bitrate=  14.1kbits/s speed=0.00907x elapsed=0:00:34.90    \nframe=   39 fps=1.1 q=49.0 size=       1KiB time=00:00:00.31 bitrate=  14.1kbits/s speed=0.00894x elapsed=0:00:35.43    \nframe=   41 fps=1.1 q=41.0 size=       1KiB time=00:00:00.33 bitrate=  13.4kbits/s speed=0.00927x elapsed=0:00:35.94    \nframe=   41 fps=1.1 q=41.0 size=       1KiB time=00:00:00.33 bitrate=  13.4kbits/s speed=0.00914x elapsed=0:00:36.45    \nframe=   43 fps=1.2 q=48.0 size=       1KiB time=00:00:00.35 bitrate=  12.8kbits/s speed=0.00947x elapsed=0:00:36.97    \nframe=   43 fps=1.1 q=48.0 size=       1KiB time=00:00:00.35 bitrate=  12.8kbits/s speed=0.00934x elapsed=0:00:37.48    \nframe=   44 fps=1.2 q=48.0 size=       1KiB time=00:00:00.35 bitrate=  12.5kbits/s speed=0.00943x elapsed=0:00:38.00    \nframe=   46 fps=1.2 q=49.0 size=       1KiB time=00:00:00.37 bitrate=  11.9kbits/s speed=0.00974x elapsed=0:00:38.51    \nframe=   48 fps=1.2 q=49.0 size=       1KiB time=00:00:00.39 bitrate=  11.4kbits/s speed=0.01x elapsed=0:00:39.02    \nframe=   50 fps=1.3 q=50.0 size=       1KiB time=00:00:00.40 bitrate=  11.0kbits/s speed=0.0103x elapsed=0:00:39.54    \nframe=   51 fps=1.3 q=48.0 size=       1KiB time=00:00:00.41 bitrate=  10.8kbits/s speed=0.0104x elapsed=0:00:40.06    \nframe=   52 fps=1.3 q=50.0 size=       1KiB time=00:00:00.42 bitrate=  10.5kbits/s speed=0.0105x elapsed=0:00:40.58    \nframe=   54 fps=1.3 q=50.0 size=       1KiB time=00:00:00.44 bitrate=  10.1kbits/s speed=0.0107x elapsed=0:00:41.09    \nframe=   55 fps=1.3 q=45.0 size=       1KiB time=00:00:00.45 bitrate=  10.0kbits/s speed=0.0108x elapsed=0:00:41.60    \nframe=   56 fps=1.3 q=50.0 size=       1KiB time=00:00:00.45 bitrate=   9.8kbits/s speed=0.0109x elapsed=0:00:42.13    \nframe=   57 fps=1.3 q=38.0 size=       1KiB time=00:00:00.46 bitrate=   9.6kbits/s speed=0.0109x elapsed=0:00:42.64    \nframe=   58 fps=1.3 q=49.0 size=       1KiB time=00:00:00.47 bitrate=   9.4kbits/s speed=0.011x elapsed=0:00:43.15    \nframe=   59 fps=1.4 q=47.0 size=       1KiB time=00:00:00.48 bitrate=   9.3kbits/s speed=0.0111x elapsed=0:00:43.68    \nframe=   59 fps=1.3 q=47.0 size=       1KiB time=00:00:00.48 bitrate=   9.3kbits/s speed=0.0109x elapsed=0:00:44.18    \nframe=   60 fps=1.3 q=48.0 size=       1KiB time=00:00:00.49 bitrate=   9.1kbits/s speed=0.011x elapsed=0:00:44.71    \nframe=   62 fps=1.4 q=49.0 size=       1KiB time=00:00:00.50 bitrate=   8.8kbits/s speed=0.0112x elapsed=0:00:45.22    \nframe=   63 fps=1.4 q=46.0 size=       1KiB time=00:00:00.51 bitrate=   8.7kbits/s speed=0.0113x elapsed=0:00:45.73    \nframe=   65 fps=1.4 q=27.0 size=       1KiB time=00:00:00.53 bitrate=   8.4kbits/s speed=0.0115x elapsed=0:00:46.25    \nframe=   68 fps=1.5 q=50.0 size=       1KiB time=00:00:00.55 bitrate=   8.0kbits/s speed=0.0119x elapsed=0:00:46.76    \nframe=   69 fps=1.5 q=45.0 size=       1KiB time=00:00:00.56 bitrate=   7.9kbits/s speed=0.012x elapsed=0:00:47.27    \nframe=   71 fps=1.5 q=47.0 size=       1KiB time=00:00:00.58 bitrate=   7.7kbits/s speed=0.0122x elapsed=0:00:47.79    \nframe=   73 fps=1.5 q=37.0 size=       1KiB time=00:00:00.60 bitrate=   7.5kbits/s speed=0.0124x elapsed=0:00:48.30    \nframe=   74 fps=1.5 q=49.0 size=       1KiB time=00:00:00.60 bitrate=   7.4kbits/s speed=0.0125x elapsed=0:00:48.83    \nframe=   75 fps=1.5 q=47.0 size=       1KiB time=00:00:00.61 bitrate=   7.3kbits/s speed=0.0125x elapsed=0:00:49.34    \nframe=   77 fps=1.5 q=43.0 size=       1KiB time=00:00:00.63 bitrate=   7.1kbits/s speed=0.0127x elapsed=0:00:49.85    \nframe=   79 fps=1.6 q=45.0 size=       1KiB time=00:00:00.65 bitrate=   6.9kbits/s speed=0.0129x elapsed=0:00:50.37    \nframe=   81 fps=1.6 q=22.0 size=       1KiB time=00:00:00.66 bitrate=   6.7kbits/s speed=0.0131x elapsed=0:00:50.89    \nframe=   82 fps=1.6 q=49.0 size=       1KiB time=00:00:00.67 bitrate=   6.6kbits/s speed=0.0131x elapsed=0:00:51.40    \nframe=   83 fps=1.6 q=46.0 size=       1KiB time=00:00:00.68 bitrate=   6.6kbits/s speed=0.0132x elapsed=0:00:51.92    \nframe=   84 fps=1.6 q=49.0 size=       1KiB time=00:00:00.69 bitrate=   6.5kbits/s speed=0.0132x elapsed=0:00:52.43    \nframe=   86 fps=1.6 q=49.0 size=       1KiB time=00:00:00.70 bitrate=   6.3kbits/s speed=0.0134x elapsed=0:00:52.96    \nframe=   86 fps=1.6 q=49.0 size=       1KiB time=00:00:00.70 bitrate=   6.3kbits/s speed=0.0132x elapsed=0:00:53.46    \nframe=   87 fps=1.6 q=46.0 size=       1KiB time=00:00:00.71 bitrate=   6.3kbits/s speed=0.0133x elapsed=0:00:53.98    \nframe=   89 fps=1.6 q=36.0 size=       1KiB time=00:00:00.73 bitrate=   6.1kbits/s speed=0.0135x elapsed=0:00:54.50    \nframe=   91 fps=1.7 q=46.0 size=       1KiB time=00:00:00.75 bitrate=   6.0kbits/s speed=0.0136x elapsed=0:00:55.01    \nframe=   92 fps=1.7 q=47.0 size=       1KiB time=00:00:00.75 bitrate=   5.9kbits/s speed=0.0137x elapsed=0:00:55.53    \nframe=   95 fps=1.7 q=44.0 size=       1KiB time=00:00:00.78 bitrate=   5.7kbits/s speed=0.014x elapsed=0:00:56.04    \nframe=   97 fps=1.7 q=19.0 size=       1KiB time=00:00:00.80 bitrate=   5.6kbits/s speed=0.0141x elapsed=0:00:56.56    \nframe=   99 fps=1.7 q=45.0 size=       1KiB time=00:00:00.81 bitrate=   5.5kbits/s speed=0.0143x elapsed=0:00:57.08    \nframe=  100 fps=1.7 q=47.0 size=       1KiB time=00:00:00.82 bitrate=   5.4kbits/s speed=0.0143x elapsed=0:00:57.59    \nframe=  101 fps=1.7 q=43.0 size=       1KiB time=00:00:00.83 bitrate=   5.4kbits/s speed=0.0143x elapsed=0:00:58.10    \nframe=  103 fps=1.8 q=45.0 size=       1KiB time=00:00:00.85 bitrate=   5.3kbits/s speed=0.0145x elapsed=0:00:58.62    \nframe=  104 fps=1.8 q=47.0 size=       1KiB time=00:00:00.85 bitrate=   5.2kbits/s speed=0.0145x elapsed=0:00:59.13    \nframe=  107 fps=1.8 q=45.0 size=       1KiB time=00:00:00.88 bitrate=   5.1kbits/s speed=0.0148x elapsed=0:00:59.69    \nframe=  107 fps=1.8 q=45.0 size=       1KiB time=00:00:00.88 bitrate=   5.1kbits/s speed=0.0147x elapsed=0:01:00.20    \nframe=  109 fps=1.8 q=43.0 size=       1KiB time=00:00:00.90 bitrate=   5.0kbits/s speed=0.0148x elapsed=0:01:00.72    \nframe=  111 fps=1.8 q=42.0 size=       1KiB time=00:00:00.91 bitrate=   4.9kbits/s speed=0.015x elapsed=0:01:01.24    \nframe=  112 fps=1.8 q=47.0 size=       1KiB time=00:00:00.92 bitrate=   4.8kbits/s speed=0.015x elapsed=0:01:01.75    \nframe=  114 fps=1.8 q=46.0 size=       1KiB time=00:00:00.94 bitrate=   4.8kbits/s speed=0.0151x elapsed=0:01:02.26    \nframe=  116 fps=1.8 q=45.0 size=       1KiB time=00:00:00.95 bitrate=   4.7kbits/s speed=0.0153x elapsed=0:01:02.78    \nframe=  118 fps=1.9 q=46.0 size=       1KiB time=00:00:00.96 bitrate=   4.6kbits/s speed=0.0153x elapsed=0:01:03.29    \nframe=  119 fps=1.9 q=43.0 size=       1KiB time=00:00:00.97 bitrate=   4.6kbits/s speed=0.0153x elapsed=0:01:03.84    \nframe=  120 fps=1.9 q=47.0 size=       1KiB time=00:00:00.99 bitrate=   4.5kbits/s speed=0.0154x elapsed=0:01:04.47    \nframe=  121 fps=1.9 q=33.0 size=       1KiB time=00:00:01.00 bitrate=   4.5kbits/s speed=0.0154x elapsed=0:01:04.98    \nframe=  123 fps=1.9 q=43.0 size=       1KiB time=00:00:01.01 bitrate=   4.4kbits/s speed=0.0155x elapsed=0:01:05.50    \nframe=  125 fps=1.9 q=40.0 size=       1KiB time=00:00:01.03 bitrate=   4.3kbits/s speed=0.0157x elapsed=0:01:06.01    \nframe=  127 fps=1.9 q=43.0 size=       1KiB time=00:00:01.05 bitrate=   4.3kbits/s speed=0.0158x elapsed=0:01:06.54    \nframe=  128 fps=1.9 q=46.0 size=       1KiB time=00:00:01.05 bitrate=   4.2kbits/s speed=0.0158x elapsed=0:01:07.05    \nframe=  130 fps=1.9 q=45.0 size=       1KiB time=00:00:01.07 bitrate=   4.2kbits/s speed=0.0159x elapsed=0:01:07.57    \nframe=  132 fps=1.9 q=44.0 size=       1KiB time=00:00:01.09 bitrate=   4.1kbits/s speed=0.016x elapsed=0:01:08.07    \nframe=  134 fps=2.0 q=45.0 size=       1KiB time=00:00:01.10 bitrate=   4.0kbits/s speed=0.0162x elapsed=0:01:08.59    \nframe=  135 fps=2.0 q=43.0 size=       1KiB time=00:00:01.11 bitrate=   4.0kbits/s speed=0.0162x elapsed=0:01:09.10    \nframe=  135 fps=1.9 q=43.0 size=       1KiB time=00:00:01.11 bitrate=   4.0kbits/s speed=0.016x elapsed=0:01:09.62    \nframe=  138 fps=2.0 q=44.0 size=       1KiB time=00:00:01.14 bitrate=   3.9kbits/s speed=0.0163x elapsed=0:01:10.14    \nframe=  139 fps=2.0 q=42.0 size=       1KiB time=00:00:01.15 bitrate=   3.9kbits/s speed=0.0163x elapsed=0:01:10.65    \nframe=  140 fps=2.0 q=40.0 size=       1KiB time=00:00:01.15 bitrate=   3.9kbits/s speed=0.0163x elapsed=0:01:11.17    \nframe=  141 fps=2.0 q=39.0 size=       1KiB time=00:00:01.16 bitrate=   3.8kbits/s speed=0.0163x elapsed=0:01:11.68    \nframe=  144 fps=2.0 q=43.0 size=       1KiB time=00:00:01.19 bitrate=   3.8kbits/s speed=0.0165x elapsed=0:01:12.20    \nframe=  146 fps=2.0 q=44.0 size=       1KiB time=00:00:01.20 bitrate=   3.7kbits/s speed=0.0166x elapsed=0:01:12.72    \nframe=  146 fps=2.0 q=44.0 size=       1KiB time=00:00:01.20 bitrate=   3.7kbits/s speed=0.0165x elapsed=0:01:13.23    \nframe=  150 fps=2.0 q=44.0 size=       1KiB time=00:00:01.24 bitrate=   3.6kbits/s speed=0.0168x elapsed=0:01:13.75    \nframe=  151 fps=2.0 q=43.0 size=       1KiB time=00:00:01.25 bitrate=   3.6kbits/s speed=0.0168x elapsed=0:01:14.26    \nframe=  152 fps=2.0 q=44.0 size=       1KiB time=00:00:01.25 bitrate=   3.6kbits/s speed=0.0168x elapsed=0:01:14.78    \nframe=  155 fps=2.1 q=43.0 size=       1KiB time=00:00:01.28 bitrate=   3.5kbits/s speed=0.017x elapsed=0:01:15.29    \nframe=  157 fps=2.1 q=40.0 size=       1KiB time=00:00:01.30 bitrate=   3.4kbits/s speed=0.0171x elapsed=0:01:15.81    \nframe=  159 fps=2.1 q=41.0 size=       1KiB time=00:00:01.31 bitrate=   3.4kbits/s speed=0.0173x elapsed=0:01:16.32    \nframe=  160 fps=2.1 q=43.0 size=       1KiB time=00:00:01.32 bitrate=   3.4kbits/s speed=0.0172x elapsed=0:01:16.85    \nframe=  161 fps=2.1 q=19.0 size=       1KiB time=00:00:01.33 bitrate=   3.4kbits/s speed=0.0172x elapsed=0:01:17.37    \nframe=  162 fps=2.1 q=43.0 size=       1KiB time=00:00:01.34 bitrate=   3.3kbits/s speed=0.0172x elapsed=0:01:17.87    \nframe=  164 fps=2.1 q=43.0 size=       1KiB time=00:00:01.35 bitrate=   3.3kbits/s speed=0.0173x elapsed=0:01:18.40    \nframe=  167 fps=2.1 q=42.0 size=       1KiB time=00:00:01.38 bitrate=   3.2kbits/s speed=0.0175x elapsed=0:01:18.93    \nframe=  168 fps=2.1 q=43.0 size=       1KiB time=00:00:01.39 bitrate=   3.2kbits/s speed=0.0175x elapsed=0:01:19.43    \nframe=  171 fps=2.1 q=42.0 size=       1KiB time=00:00:01.41 bitrate=   3.2kbits/s speed=0.0177x elapsed=0:01:19.95    \nframe=  171 fps=2.1 q=42.0 size=       1KiB time=00:00:01.41 bitrate=   3.2kbits/s speed=0.0176x elapsed=0:01:20.46    \nframe=  173 fps=2.1 q=40.0 size=       1KiB time=00:00:01.43 bitrate=   3.1kbits/s speed=0.0177x elapsed=0:01:20.98    \nframe=  174 fps=2.1 q=42.0 size=       1KiB time=00:00:01.44 bitrate=   3.1kbits/s speed=0.0177x elapsed=0:01:21.50    \nframe=  177 fps=2.2 q=22.0 size=       1KiB time=00:00:01.46 bitrate=   3.1kbits/s speed=0.0179x elapsed=0:01:22.01    \nframe=  178 fps=2.2 q=43.0 size=       1KiB time=00:00:01.47 bitrate=   3.0kbits/s speed=0.0179x elapsed=0:01:22.54    \nframe=  178 fps=2.1 q=43.0 size=       1KiB time=00:00:01.47 bitrate=   3.0kbits/s speed=0.0178x elapsed=0:01:23.04    \nframe=  179 fps=2.1 q=42.0 size=       1KiB time=00:00:01.48 bitrate=   3.0kbits/s speed=0.0177x elapsed=0:01:23.56    \nframe=  182 fps=2.2 q=43.0 size=       1KiB time=00:00:01.50 bitrate=   3.0kbits/s speed=0.0179x elapsed=0:01:24.08    \nframe=  183 fps=2.2 q=42.0 size=       1KiB time=00:00:01.51 bitrate=   3.0kbits/s speed=0.0179x elapsed=0:01:24.59    \nframe=  185 fps=2.2 q=34.0 size=       1KiB time=00:00:01.53 bitrate=   2.9kbits/s speed=0.018x elapsed=0:01:25.11    \nframe=  187 fps=2.2 q=42.0 size=       1KiB time=00:00:01.55 bitrate=   2.9kbits/s speed=0.0181x elapsed=0:01:25.63    \nframe=  188 fps=2.2 q=39.0 size=       1KiB time=00:00:01.55 bitrate=   2.9kbits/s speed=0.0181x elapsed=0:01:26.13    \nframe=  191 fps=2.2 q=40.0 size=       1KiB time=00:00:01.58 bitrate=   2.8kbits/s speed=0.0183x elapsed=0:01:26.65    \nframe=  193 fps=2.2 q=23.0 size=       1KiB time=00:00:01.60 bitrate=   2.8kbits/s speed=0.0184x elapsed=0:01:27.17    \nframe=  194 fps=2.2 q=43.0 size=       1KiB time=00:00:01.60 bitrate=   2.8kbits/s speed=0.0183x elapsed=0:01:27.69    \nframe=  195 fps=2.2 q=42.0 size=       1KiB time=00:00:01.61 bitrate=   2.8kbits/s speed=0.0183x elapsed=0:01:28.20    \nframe=  199 fps=2.2 q=42.0 size=       1KiB time=00:00:01.65 bitrate=   2.7kbits/s speed=0.0186x elapsed=0:01:28.72    \nframe=  201 fps=2.3 q=33.0 size=       1KiB time=00:00:01.66 bitrate=   2.7kbits/s speed=0.0187x elapsed=0:01:29.23    \nframe=  205 fps=2.3 q=39.0 size=       1KiB time=00:00:01.70 bitrate=   2.6kbits/s speed=0.0189x elapsed=0:01:29.74    \nframe=  207 fps=2.3 q=41.0 size=       1KiB time=00:00:01.71 bitrate=   2.6kbits/s speed=0.019x elapsed=0:01:30.26    \nframe=  209 fps=2.3 q=22.0 size=       1KiB time=00:00:01.73 bitrate=   2.6kbits/s speed=0.0191x elapsed=0:01:30.78    \nframe=  209 fps=2.3 q=22.0 size=       1KiB time=00:00:01.73 bitrate=   2.6kbits/s speed=0.019x elapsed=0:01:31.30    \nframe=  209 fps=2.3 q=22.0 size=       1KiB time=00:00:01.73 bitrate=   2.6kbits/s speed=0.0189x elapsed=0:01:31.82    \nframe=  211 fps=2.3 q=42.0 size=       1KiB time=00:00:01.75 bitrate=   2.6kbits/s speed=0.019x elapsed=0:01:32.33    \nframe=  213 fps=2.3 q=40.0 size=       1KiB time=00:00:01.76 bitrate=   2.5kbits/s speed=0.019x elapsed=0:01:32.84    \nframe=  217 fps=2.3 q=33.0 size=       1KiB time=00:00:01.80 bitrate=   2.5kbits/s speed=0.0193x elapsed=0:01:33.37    \nframe=  217 fps=2.3 q=33.0 size=       1KiB time=00:00:01.80 bitrate=   2.5kbits/s speed=0.0192x elapsed=0:01:33.90    \nframe=  221 fps=2.3 q=39.0 size=       1KiB time=00:00:01.83 bitrate=   2.4kbits/s speed=0.0194x elapsed=0:01:34.41    \nframe=  221 fps=2.3 q=39.0 size=       1KiB time=00:00:01.83 bitrate=   2.4kbits/s speed=0.0193x elapsed=0:01:34.92    \nframe=  223 fps=2.3 q=41.0 size=       1KiB time=00:00:01.85 bitrate=   2.4kbits/s speed=0.0194x elapsed=0:01:35.43    \nframe=  225 fps=2.3 q=22.0 size=       1KiB time=00:00:01.86 bitrate=   2.4kbits/s speed=0.0195x elapsed=0:01:35.96    \nframe=  227 fps=2.4 q=42.0 size=       1KiB time=00:00:01.88 bitrate=   2.4kbits/s speed=0.0195x elapsed=0:01:36.47    \nframe=  229 fps=2.4 q=40.0 size=       1KiB time=00:00:01.90 bitrate=   2.4kbits/s speed=0.0196x elapsed=0:01:36.98    \nframe=  229 fps=2.3 q=40.0 size=       1KiB time=00:00:01.90 bitrate=   2.4kbits/s speed=0.0195x elapsed=0:01:37.49    \nframe=  233 fps=2.4 q=34.0 size=       1KiB time=00:00:01.93 bitrate=   2.3kbits/s speed=0.0197x elapsed=0:01:38.02    \nframe=  233 fps=2.4 q=34.0 size=       1KiB time=00:00:01.93 bitrate=   2.3kbits/s speed=0.0196x elapsed=0:01:38.54    \nframe=  233 fps=2.4 q=34.0 size=       1KiB time=00:00:01.93 bitrate=   2.3kbits/s speed=0.0195x elapsed=0:01:39.07    \nframe=  235 fps=2.4 q=42.0 size=       1KiB time=00:00:01.95 bitrate=   2.3kbits/s speed=0.0196x elapsed=0:01:39.58    \nframe=  237 fps=2.4 q=40.0 size=       1KiB time=00:00:01.96 bitrate=   2.3kbits/s speed=0.0196x elapsed=0:01:40.10    \nframe=  239 fps=2.4 q=40.0 size=       1KiB time=00:00:01.98 bitrate=   2.3kbits/s speed=0.0197x elapsed=0:01:40.60    \nframe=  241 fps=2.4 q=23.0 size=       1KiB time=00:00:02.00 bitrate=   2.2kbits/s speed=0.0198x elapsed=0:01:41.13    \nframe=  241 fps=2.4 q=23.0 size=       1KiB time=00:00:02.00 bitrate=   2.2kbits/s speed=0.0197x elapsed=0:01:41.64    \nframe=  241 fps=2.4 q=23.0 size=       1KiB time=00:00:02.00 bitrate=   2.2kbits/s speed=0.0196x elapsed=0:01:42.15    \nframe=  243 fps=2.4 q=41.0 size=       1KiB time=00:00:02.01 bitrate=   2.2kbits/s speed=0.0196x elapsed=0:01:42.67    \nframe=  245 fps=2.4 q=39.0 size=       1KiB time=00:00:02.03 bitrate=   2.2kbits/s speed=0.0197x elapsed=0:01:43.19    \nframe=  247 fps=2.4 q=41.0 size=       1KiB time=00:00:02.05 bitrate=   2.2kbits/s speed=0.0198x elapsed=0:01:43.70    \nframe=  249 fps=2.4 q=33.0 size=       1KiB time=00:00:02.06 bitrate=   2.2kbits/s speed=0.0198x elapsed=0:01:44.21    \nframe=  249 fps=2.4 q=33.0 size=       1KiB time=00:00:02.06 bitrate=   2.2kbits/s speed=0.0197x elapsed=0:01:44.74    \nframe=  249 fps=2.4 q=33.0 size=       1KiB time=00:00:02.06 bitrate=   2.2kbits/s speed=0.0196x elapsed=0:01:45.25    \nframe=  253 fps=2.4 q=37.0 size=       1KiB time=00:00:02.10 bitrate=   2.1kbits/s speed=0.0199x elapsed=0:01:45.76    \nframe=  253 fps=2.4 q=37.0 size=       1KiB time=00:00:02.10 bitrate=   2.1kbits/s speed=0.0198x elapsed=0:01:46.28    \nframe=  255 fps=2.4 q=39.0 size=       1KiB time=00:00:02.11 bitrate=   2.1kbits/s speed=0.0198x elapsed=0:01:46.79    \nframe=  257 fps=2.4 q=22.0 size=       1KiB time=00:00:02.13 bitrate=   2.1kbits/s speed=0.0199x elapsed=0:01:47.31    \nframe=  259 fps=2.4 q=40.0 size=       1KiB time=00:00:02.15 bitrate=   2.1kbits/s speed=0.0199x elapsed=0:01:47.83    \nframe=  261 fps=2.4 q=38.0 size=       1KiB time=00:00:02.16 bitrate=   2.1kbits/s speed=0.02x elapsed=0:01:48.34    \nframe=  265 fps=2.4 q=31.0 size=       1KiB time=00:00:02.20 bitrate=   2.0kbits/s speed=0.0202x elapsed=0:01:48.85    \nframe=  265 fps=2.4 q=31.0 size=       1KiB time=00:00:02.20 bitrate=   2.0kbits/s speed=0.0201x elapsed=0:01:49.38    \nframe=  265 fps=2.4 q=31.0 size=       1KiB time=00:00:02.20 bitrate=   2.0kbits/s speed=0.02x elapsed=0:01:49.89    \nframe=  265 fps=2.4 q=31.0 size=       1KiB time=00:00:02.20 bitrate=   2.0kbits/s speed=0.0199x elapsed=0:01:50.40    \nframe=  265 fps=2.4 q=31.0 size=       1KiB time=00:00:02.20 bitrate=   2.0kbits/s speed=0.0198x elapsed=0:01:50.92    \nframe=  269 fps=2.4 q=34.0 size=       1KiB time=00:00:02.23 bitrate=   2.0kbits/s speed=0.02x elapsed=0:01:51.44    \nframe=  269 fps=2.4 q=34.0 size=       1KiB time=00:00:02.23 bitrate=   2.0kbits/s speed=0.0199x elapsed=0:01:51.96    \nframe=  275 fps=2.4 q=39.0 size=       1KiB time=00:00:02.28 bitrate=   2.0kbits/s speed=0.0203x elapsed=0:01:52.48    \nframe=  279 fps=2.5 q=39.0 size=       1KiB time=00:00:02.31 bitrate=   1.9kbits/s speed=0.0205x elapsed=0:01:52.99    \nframe=  281 fps=2.5 q=31.0 size=       1KiB time=00:00:02.33 bitrate=   1.9kbits/s speed=0.0206x elapsed=0:01:53.52    \nframe=  283 fps=2.5 q=39.0 size=       1KiB time=00:00:02.35 bitrate=   1.9kbits/s speed=0.0206x elapsed=0:01:54.03    \nframe=  287 fps=2.5 q=39.0 size=       1KiB time=00:00:02.38 bitrate=   1.9kbits/s speed=0.0208x elapsed=0:01:54.54    \n[out#0/matroska @ 000001a026f190c0] video:1160KiB audio:0KiB subtitle:0KiB other streams:0KiB global headers:0KiB muxing overhead: 0.165958%\nframe=  300 fps=2.6 q=42.0 Lsize=    1162KiB time=00:00:02.49 bitrate=3819.5kbits/s speed=0.0217x elapsed=0:01:54.93    \n",
  "seconds": 116.96412777900696,
  "probe_out": {}
}